<?xml version="1.0" encoding="UTF-8"?>
<svg width="334px" height="233px" viewBox="0 0 334 233" version="1.1" xmlns="http://www.w3.org/2000/svg" xmlns:xlink="http://www.w3.org/1999/xlink" xmlns:sketch="http://www.bohemiancoding.com/sketch/ns">
    <title>m_10@2x</title>
    <description>Created with Sketch (http://www.bohemiancoding.com/sketch)</description>
    <defs></defs>
    <g id="Page-1" stroke="none" stroke-width="1" fill="none" fill-rule="evenodd" sketch:type="MSPage">
        <g id="m_10" sketch:type="MSLayerGroup" transform="translate(-1.000000, -1.000000)">
            <path d="M0.126,-0.19 L336.112,-0.19 L336.112,235 L0.126,235 L0.126,-0.19 Z" id="Fill-1" fill="#45A6A8" sketch:type="MSShapeGroup"></path>
            <path d="M209.565,234.813 C248.314,218.14 275.494,179.203 275.494,133.828 C275.494,73.268 227.084,24.174 167.368,24.174 C107.651,24.174 59.243,73.268 59.243,133.828 C59.243,179.203 86.421,218.14 125.17,234.813 L209.565,234.813" id="Fill-2" fill="#3E9397" sketch:type="MSShapeGroup"></path>
            <path d="M32.147,188.535 C28.887,187.443 25.398,186.851 21.77,186.851 C19.202,186.851 16.704,187.149 14.308,187.711 L33.217,162.084 L42.241,167.017 L57.804,141.812 L59.55,142.151 C60.157,150.354 61.653,158.304 63.943,165.905 C60.471,167.577 55.454,170.72 48.644,176.618 C41.655,178.191 35.735,182.583 32.147,188.535 M277.295,179.069 C274.891,178.659 272.035,178.3 269.216,177.997 L268.54,174.28 L268.54,173.937 L268.509,174.109 L268.478,173.937 L268.478,174.28 L267.828,177.852 C267.376,177.806 266.927,177.761 266.483,177.718 C268.509,173.02 270.221,168.148 271.589,163.133 L278.859,164.021 L281.175,171.686 C279.508,173.898 278.188,176.386 277.295,179.069" id="Fill-3" fill="#4F828A" sketch:type="MSShapeGroup"></path>
            <path d="M266.483,177.718 C260.993,177.188 256.29,176.894 256.29,176.894 L238.236,152.191 L237.168,153.402 L235.812,151.639 L250.96,139.01 L262.999,162.084 L271.589,163.133 C270.221,168.148 268.509,173.02 266.483,177.718 M63.943,165.905 C61.653,158.304 60.157,150.354 59.55,142.151 L70.223,144.222 C70.223,144.222 83.674,115.216 84.844,115.216 C84.879,115.216 84.902,115.241 84.915,115.292 C85.157,116.288 88.989,123.218 92.382,129.24 L87.201,135.136 L70.222,164.028 L70.223,164.027 C70.223,164.027 70.166,164.02 70.051,164.02 C69.492,164.02 67.55,164.169 63.943,165.905 M206.638,164.344 L206.638,145.366 L194.844,107.22 L192.182,122.356 L186.111,111.415 L178.486,131.443 L171.773,102.22 L184.093,84.812 L200.305,94.312 L212.788,139.01 L226.604,125.312 L229.975,148.677 L227.848,155.664 L222.996,145.366 L218.163,163.867 L213.723,150.21 L206.638,164.344 M118.215,139.986 L111.947,112.704 L116.339,104.812 L130.516,130.342 L130.221,132.021 L124.898,122.431 L118.215,139.986 M137.642,135.209 L135.053,126.835 L146.914,88.812 L155.373,111.948 L143.107,125.91 L137.642,135.209 M104.46,128.197 L103.83,127.287 L109.917,116.35 L104.46,128.197 M162.794,117.995 L161.713,116.433 L166.87,109.147 L162.794,117.995" id="Fill-4" fill="#4B7882" sketch:type="MSShapeGroup"></path>
            <path d="M187.187,115.419 L191.767,113.525 L199.241,113.419 L203.611,110.839 L207.085,113.13 L208.664,110.839 L211.822,110.839 L217.034,106.103 L223.193,106.103 L232.037,103.417 L240.406,106.892 L242.775,110.682 L249.565,109.418 L252.725,115.419 L187.187,115.419" id="Fill-5" fill="#F9F6EC" sketch:type="MSShapeGroup"></path>
            <path d="M16.397,94.597 L21.656,92.421 L30.24,92.3 L35.258,89.337 L39.247,91.968 L41.061,89.337 L44.687,89.337 L50.672,83.899 L57.745,83.899 L67.9,80.815 L77.511,84.805 L80.231,89.158 L88.03,87.706 L91.656,94.597 L16.397,94.597" id="Fill-6" fill="#F9F6EC" sketch:type="MSShapeGroup"></path>
            <path d="M110.83,34.575 L35.571,34.575 L40.83,32.399 L49.414,32.278 L54.432,29.315 L58.421,31.946 L60.234,29.315 L63.861,29.315 L69.847,23.876 L76.919,23.876 L87.074,20.792 L96.685,24.783 L99.405,29.135 L107.204,27.684 L110.83,34.575" id="Fill-7" fill="#9FCECA" sketch:type="MSShapeGroup"></path>
            <path d="M193.716,51.663 L200.305,50.952 L197.01,56.463 L200.059,62.484 L187,63.566" id="Fill-8" fill="#D03C00" sketch:type="MSShapeGroup"></path>
            <path d="M176.744,51.663 L194.105,49.396 L194.279,60.667 L176.346,62.799" id="Fill-9" fill="#F44C00" sketch:type="MSShapeGroup"></path>
            <path d="M187,63.566 L188.186,61.392 L194.279,60.667" id="Fill-10" fill="#AD0000" sketch:type="MSShapeGroup"></path>
            <path d="M175.971,50.001 L176.721,50.001 L176.721,73.521 L175.971,73.521 L175.971,50.001 Z" id="Fill-11" fill="#585E6D" sketch:type="MSShapeGroup"></path>
            <path d="M57.804,196.812 L14.259,196.812 C28.393,196.811 34.009,190.896 34.009,190.896 C60.13,162.896 70.223,164.027 70.223,164.027 L57.804,196.812" id="Fill-12" fill="#B0DC49" sketch:type="MSShapeGroup"></path>
            <path d="M157.659,108.553 L176.346,70.788 L195.034,106.55 L191.897,127.15 L146.914,144.222" id="Fill-13" fill="#F9F6EC" sketch:type="MSShapeGroup"></path>
            <path d="M196.752,147.512 L214.58,135.162 L218.163,122.356 L230.983,145.366 L230.983,173.021 L196.462,173.546" id="Fill-14" fill="#F9F6EC" sketch:type="MSShapeGroup"></path>
            <path d="M263.925,196.812 L252.671,173.546 L230.983,145.366 L227.848,155.664 L222.996,145.366 L218.163,163.867 L213.723,150.21 L206.638,164.344 L206.638,145.366 L163.081,196.673 L166.639,196.812 L263.925,196.812" id="Fill-15" fill="#6B7485" sketch:type="MSShapeGroup"></path>
            <path d="M178.585,196.812 L206.638,145.366 L194.844,107.22 L192.182,122.356 L186.111,111.415 L178.486,131.443 L171.203,99.742 L162.794,117.995 L157.184,109.888 L143.107,125.91 L109.572,182.974 L109.572,196.812 L178.585,196.812" id="Fill-16" fill="#6B7485" sketch:type="MSShapeGroup"></path>
            <path d="M172.495,182.749 L177.198,196.812 L178.585,196.812 L206.638,145.366 L195.034,106.55 L192.182,122.356 L186.111,111.415 L178.486,131.443 L175.348,119.425 L168.215,133.731 L173.066,143.84 L163.935,153.613 L172.495,182.749" id="Fill-17" fill="#585E6D" sketch:type="MSShapeGroup"></path>
            <path d="M236.314,185.611 L234.146,196.812 L263.925,196.812 L252.671,173.546 L230.983,145.366 L227.848,155.664 L222.996,145.366 L218.163,163.867 L227.944,170.733 L236.314,185.611" id="Fill-18" fill="#585E6D" sketch:type="MSShapeGroup"></path>
            <path d="M176.346,70.788 L179.633,94.057 L186.111,111.415 L192.182,122.356 L195.034,106.55" id="Fill-19" fill="#EDE9DF" sketch:type="MSShapeGroup"></path>
            <path d="M218.163,122.356 L219.31,135.83 L222.996,145.366 L227.848,155.664 L230.983,145.366" id="Fill-20" fill="#EDE9DF" sketch:type="MSShapeGroup"></path>
            <path d="M99.958,119.92 L116.339,86.816 L132.721,118.165 L129.971,136.222 L90.538,151.189" id="Fill-21" fill="#F9F6EC" sketch:type="MSShapeGroup"></path>
            <path d="M134.227,154.073 L149.854,143.246 L152.995,132.021 L164.233,152.191 L164.233,176.434 L133.973,176.894" id="Fill-22" fill="#F9F6EC" sketch:type="MSShapeGroup"></path>
            <path d="M105.012,196.812 L192.88,196.812 L183.246,176.894 L164.233,152.191 L161.486,161.218 L157.232,152.191 L152.995,168.41 L149.104,156.438 L142.893,168.828 L142.893,152.191 L105.012,196.812" id="Fill-23" fill="#6B7485" sketch:type="MSShapeGroup"></path>
            <path d="M118.561,196.812 L142.893,152.191 L132.554,118.751 L130.221,132.021 L124.898,122.431 L118.215,139.986 L111.83,112.197 L104.46,128.197 L99.54,121.091 L87.201,135.136 L57.804,185.159 L57.804,196.812 L118.561,196.812" id="Fill-24" fill="#6B7485" sketch:type="MSShapeGroup"></path>
            <path d="M112.963,184.962 L116.927,196.812 L118.562,196.812 L142.893,152.191 L132.721,118.165 L130.221,132.021 L124.898,122.431 L118.215,139.986 L115.464,129.452 L109.211,141.992 L113.464,150.855 L105.459,159.419 L112.963,184.962" id="Fill-25" fill="#585E6D" sketch:type="MSShapeGroup"></path>
            <path d="M168.907,187.47 L167.1,196.812 L192.88,196.812 L183.246,176.894 L164.233,152.191 L161.486,161.218 L157.232,152.191 L152.995,168.41 L161.57,174.428 L168.907,187.47" id="Fill-26" fill="#585E6D" sketch:type="MSShapeGroup"></path>
            <path d="M116.339,86.816 L119.22,107.214 L124.898,122.431 L130.221,132.021 L132.721,118.165" id="Fill-27" fill="#EDE9DF" sketch:type="MSShapeGroup"></path>
            <path d="M152.995,132.021 L154.001,143.831 L157.232,152.191 L161.486,161.218 L164.233,152.191" id="Fill-28" fill="#EDE9DF" sketch:type="MSShapeGroup"></path>
            <path d="M194.88,196.812 L322.637,199.479 C313.014,198.146 304.26,193.479 297.391,190.145 C290.521,186.811 287.593,182.145 281.953,180.145 C276.313,178.145 256.29,176.894 256.29,176.894 L238.236,152.191 L223.593,168.787 L208.638,173.546 L198.462,164.027 L185.286,181.112 L194.88,196.812" id="Fill-29" fill="#56CD6B" sketch:type="MSShapeGroup"></path>
            <path d="M84.925,139.01 C84.925,139.01 99.263,149.523 113.464,150.855 C127.665,152.187 128.926,161.218 128.926,161.218 L136.165,164.529 L128.366,178.831 C128.366,178.831 77.138,146.97 57.804,185.159 L84.925,139.01" id="Fill-30" fill="#56CD6B" sketch:type="MSShapeGroup"></path>
            <path d="M243.317,169.808 C242.244,169.008 241.195,168.152 240.173,167.232 C237.346,164.687 234.536,162.124 231.8,159.486 L223.593,168.787 L233.449,180.517 L230.983,194.145 L241.044,197.776 L260.285,198.177 C254.915,192.261 250.062,185.687 246.825,178.458 C245.546,175.601 244.39,172.715 243.317,169.808" id="Fill-31" fill="#41AB80" sketch:type="MSShapeGroup"></path>
            <path d="M256.29,176.894 L275.093,186.312 L275.093,191.312 L290.593,199.479 L301.429,199.037 C301.429,199.037 275.026,182.851 275.81,178.831 L256.29,176.894" id="Fill-32" fill="#4EB85A" sketch:type="MSShapeGroup"></path>
            <path d="M208.638,173.546 L196.462,178.831 L198.593,188.187 L188.26,185.813 L185.286,181.112 L198.462,164.027" id="Fill-33" fill="#AFD744" sketch:type="MSShapeGroup"></path>
            <path d="M118.561,196.812 L128.366,178.831 C128.366,178.831 90.799,152.001 65.343,174.312 C65.343,174.312 53.968,185.159 51.968,196.812 L118.561,196.812" id="Fill-34" fill="#4EB85A" sketch:type="MSShapeGroup"></path>
            <path d="M113.464,150.855 L119.093,162.084 L115.112,173.546 L122.093,189.812 L136.165,164.529 C136.165,164.529 128.585,151.648 113.464,150.855" id="Fill-35" fill="#41AB80" sketch:type="MSShapeGroup"></path>
            <path d="M98.419,146.62 L86.343,151.681 L77.343,162.084 L74.593,170.333 L62.409,177.452 L85.271,138.449 L98.419,146.62" id="Fill-36" fill="#B0DC49" sketch:type="MSShapeGroup"></path>
            <path d="M70.223,164.027 C70.223,164.027 66.942,173.092 62.409,177.452 C57.03,182.624 52.009,195.395 51.968,196.812 L41.759,196.812 C41.759,196.812 56.973,168.653 70.223,164.027" id="Fill-37" fill="#56CD6B" sketch:type="MSShapeGroup"></path>
            <path d="M256.242,176.123 L256.242,184.056" id="Fill-38" fill="#748C98" sketch:type="MSShapeGroup"></path>
            <path d="M256.242,184.529 C255.985,184.529 255.777,184.317 255.777,184.056 L255.777,176.123 C255.777,175.863 255.985,175.651 256.242,175.651 C256.5,175.651 256.708,175.863 256.708,176.123 L256.708,184.056 C256.708,184.317 256.5,184.529 256.242,184.529" id="Fill-39" fill="#585E6D" sketch:type="MSShapeGroup"></path>
            <path d="M256.321,166.318 L253.279,183.042 L256.321,183.042" id="Fill-40" fill="#BDF37E" sketch:type="MSShapeGroup"></path>
            <path d="M256.259,166.318 L259.301,183.042 L256.259,183.042" id="Fill-41" fill="#BDF37E" sketch:type="MSShapeGroup"></path>
            <path d="M244.007,171.789 L244.007,179.722" id="Fill-42" fill="#748C98" sketch:type="MSShapeGroup"></path>
            <path d="M244.007,180.195 C243.75,180.195 243.542,179.983 243.542,179.722 L243.542,171.789 C243.542,171.529 243.75,171.317 244.007,171.317 C244.265,171.317 244.473,171.529 244.473,171.789 L244.473,179.722 C244.473,179.983 244.265,180.195 244.007,180.195" id="Fill-43" fill="#585E6D" sketch:type="MSShapeGroup"></path>
            <path d="M244.086,161.984 L241.044,178.708 L244.086,178.708" id="Fill-44" fill="#BDF37E" sketch:type="MSShapeGroup"></path>
            <path d="M244.023,161.984 L247.065,178.708 L244.023,178.708" id="Fill-45" fill="#BDF37E" sketch:type="MSShapeGroup"></path>
            <path d="M268.461,183.742 L268.461,191.675 L268.461,183.742" id="Fill-46" fill="#748C98" sketch:type="MSShapeGroup"></path>
            <path d="M268.461,192.148 C268.204,192.148 267.996,191.936 267.996,191.675 L267.996,183.742 C267.996,183.482 268.204,183.27 268.461,183.27 C268.719,183.27 268.927,183.482 268.927,183.742 L268.927,191.675 C268.927,191.936 268.719,192.148 268.461,192.148" id="Fill-47" fill="#585E6D" sketch:type="MSShapeGroup"></path>
            <path d="M268.54,173.937 L265.498,190.662 L268.54,190.662 L268.54,173.937" id="Fill-48" fill="#BDF37E" sketch:type="MSShapeGroup"></path>
            <path d="M268.478,173.937 L271.52,190.662 L268.478,190.662 L268.478,173.937" id="Fill-49" fill="#BDF37E" sketch:type="MSShapeGroup"></path>
            <path d="M237.985,186.699 L237.985,194.632 L237.985,186.699" id="Fill-50" fill="#748C98" sketch:type="MSShapeGroup"></path>
            <path d="M237.985,195.105 C237.728,195.105 237.52,194.893 237.52,194.632 L237.52,186.699 C237.52,186.439 237.728,186.227 237.985,186.227 C238.243,186.227 238.451,186.439 238.451,186.699 L238.451,194.632 C238.451,194.893 238.243,195.105 237.985,195.105" id="Fill-51" fill="#585E6D" sketch:type="MSShapeGroup"></path>
            <path d="M238.064,176.894 L235.022,193.619 L238.064,193.619 L238.064,176.894" id="Fill-52" fill="#BDF37E" sketch:type="MSShapeGroup"></path>
            <path d="M238.002,176.894 L241.044,193.619 L238.002,193.619" id="Fill-53" fill="#BDF37E" sketch:type="MSShapeGroup"></path>
            <path d="M223.545,180.421 L223.545,188.355" id="Fill-54" fill="#748C98" sketch:type="MSShapeGroup"></path>
            <path d="M223.545,188.828 C223.288,188.828 223.08,188.616 223.08,188.355 L223.08,180.421 C223.08,180.162 223.288,179.95 223.545,179.95 C223.803,179.95 224.011,180.162 224.011,180.421 L224.011,188.355 C224.011,188.616 223.803,188.828 223.545,188.828" id="Fill-55" fill="#585E6D" sketch:type="MSShapeGroup"></path>
            <path d="M223.624,170.617 L220.582,187.341 L223.624,187.341" id="Fill-56" fill="#BDF37E" sketch:type="MSShapeGroup"></path>
            <path d="M223.562,170.617 L226.604,187.341 L223.562,187.341" id="Fill-57" fill="#BDF37E" sketch:type="MSShapeGroup"></path>
            <path d="M100.58,179.678 L100.58,187.612 L100.58,179.678" id="Fill-58" fill="#748C98" sketch:type="MSShapeGroup"></path>
            <path d="M100.58,188.084 C100.323,188.084 100.115,187.873 100.115,187.612 L100.115,179.678 C100.115,179.418 100.323,179.206 100.58,179.206 C100.838,179.206 101.046,179.418 101.046,179.678 L101.046,187.612 C101.046,187.873 100.838,188.084 100.58,188.084" id="Fill-59" fill="#585E6D" sketch:type="MSShapeGroup"></path>
            <path d="M100.659,169.874 L97.617,186.599 L100.659,186.599 L100.659,169.874" id="Fill-60" fill="#BDF37E" sketch:type="MSShapeGroup"></path>
            <path d="M100.597,169.874 L103.639,186.599 L100.597,186.599 L100.597,169.874" id="Fill-61" fill="#BDF37E" sketch:type="MSShapeGroup"></path>
            <path d="M90.119,167.017 L90.119,174.951" id="Fill-62" fill="#748C98" sketch:type="MSShapeGroup"></path>
            <path d="M90.119,175.423 C89.862,175.423 89.654,175.211 89.654,174.951 L89.654,167.017 C89.654,166.757 89.862,166.545 90.119,166.545 C90.377,166.545 90.585,166.757 90.585,167.017 L90.585,174.951 C90.585,175.211 90.377,175.423 90.119,175.423" id="Fill-63" fill="#585E6D" sketch:type="MSShapeGroup"></path>
            <path d="M90.198,157.212 L87.156,173.937 L90.198,173.937" id="Fill-64" fill="#BDF37E" sketch:type="MSShapeGroup"></path>
            <path d="M90.136,157.212 L93.178,173.937 L90.136,173.937" id="Fill-65" fill="#BDF37E" sketch:type="MSShapeGroup"></path>
            <path d="M67.164,178.151 L67.164,186.084 L67.164,178.151" id="Fill-66" fill="#748C98" sketch:type="MSShapeGroup"></path>
            <path d="M67.164,186.557 C66.907,186.557 66.699,186.345 66.699,186.084 L66.699,178.151 C66.699,177.891 66.907,177.679 67.164,177.679 C67.422,177.679 67.63,177.891 67.63,178.151 L67.63,186.084 C67.63,186.345 67.422,186.557 67.164,186.557" id="Fill-67" fill="#585E6D" sketch:type="MSShapeGroup"></path>
            <path d="M67.243,168.346 L64.201,185.071 L67.243,185.071 L67.243,168.346" id="Fill-68" fill="#BDF37E" sketch:type="MSShapeGroup"></path>
            <path d="M67.181,168.346 L70.223,185.071 L67.181,185.071 L67.181,168.346" id="Fill-69" fill="#BDF37E" sketch:type="MSShapeGroup"></path>
            <path d="M83.377,183.969 L83.377,191.903 L83.377,183.969" id="Fill-70" fill="#748C98" sketch:type="MSShapeGroup"></path>
            <path d="M83.377,192.375 C83.12,192.375 82.912,192.164 82.912,191.903 L82.912,183.969 C82.912,183.709 83.12,183.497 83.377,183.497 C83.635,183.497 83.843,183.709 83.843,183.969 L83.843,191.903 C83.843,192.164 83.635,192.375 83.377,192.375" id="Fill-71" fill="#585E6D" sketch:type="MSShapeGroup"></path>
            <path d="M83.456,174.164 L80.414,190.889 L83.456,190.889 L83.456,174.164" id="Fill-72" fill="#BDF37E" sketch:type="MSShapeGroup"></path>
            <path d="M83.394,174.164 L86.436,190.889 L83.394,190.889 L83.394,174.164" id="Fill-73" fill="#BDF37E" sketch:type="MSShapeGroup"></path>
            <path d="M109.524,169.045 L109.524,176.979" id="Fill-74" fill="#748C98" sketch:type="MSShapeGroup"></path>
            <path d="M109.524,177.452 C109.268,177.452 109.06,177.24 109.06,176.979 L109.06,169.045 C109.06,168.786 109.268,168.574 109.524,168.574 C109.782,168.574 109.99,168.786 109.99,169.045 L109.99,176.979 C109.99,177.24 109.782,177.452 109.524,177.452" id="Fill-75" fill="#585E6D" sketch:type="MSShapeGroup"></path>
            <path d="M109.604,159.241 L106.562,175.965 L109.604,175.965" id="Fill-76" fill="#BDF37E" sketch:type="MSShapeGroup"></path>
            <path d="M109.541,159.241 L112.583,175.965 L109.541,175.965" id="Fill-77" fill="#BDF37E" sketch:type="MSShapeGroup"></path>
            <path d="M2.905,163.543 C1.92,163.543 0.953,163.619 0,163.738 L0,209.964 C0.953,210.083 1.92,210.159 2.905,210.159 C15.798,210.159 26.25,199.724 26.25,186.851 C26.25,173.979 15.798,163.543 2.905,163.543" id="Fill-187" fill="#F9F6EC" sketch:type="MSShapeGroup"></path>
            <path d="M0,195.193 L0,235 L53.6326332,234.999998 C56.1726332,230.367998 54.367,225.051 54.367,219.397 C54.367,201.423 39.773,186.851 21.77,186.851 C13.398,186.851 5.773,190.013 0,195.193 Z" id="Fill-188" fill="#F9F6EC" sketch:type="MSShapeGroup"></path>
            <path d="M51.698,235 L79.951,235 C85.552,230.743 89.169,224.018 89.169,216.449 C89.169,203.577 78.717,193.141 65.824,193.141 C52.932,193.141 42.48,203.577 42.48,216.449 C42.48,224.018 46.098,230.743 51.698,235" id="Fill-189" fill="#F9F6EC" sketch:type="MSShapeGroup"></path>
            <path d="M124.49,235 C124.524,234.493 124.546,233.983 124.546,233.466 C124.546,220.594 114.095,210.159 101.202,210.159 C88.31,210.159 77.858,220.594 77.858,233.466 C77.858,233.983 77.881,234.493 77.914,235 L124.49,235" id="Fill-190" fill="#F9F6EC" sketch:type="MSShapeGroup"></path>
            <path d="M240.672,235 C228.156,216.271 206.81,203.928 182.567,203.928 C158.329,203.928 136.981,216.271 124.469,235 L240.672,235" id="Fill-191" fill="#F9F6EC" sketch:type="MSShapeGroup"></path>
            <path d="M239.733,235 C237.533,224.409 228.137,216.449 216.876,216.449 C205.617,216.449 196.221,224.409 194.02,235 L239.733,235" id="Fill-192" fill="#F9F6EC" sketch:type="MSShapeGroup"></path>
            <path d="M275.474,235 C276.627,232.071 277.267,228.884 277.267,225.546 C277.267,211.255 265.663,199.669 251.349,199.669 C237.035,199.669 225.432,211.255 225.432,225.546 C225.432,228.884 226.071,232.071 227.225,235 L275.474,235" id="Fill-193" fill="#F9F6EC" sketch:type="MSShapeGroup"></path>
            <path d="M309.678843,234.999998 C312.054843,231.089998 310.964,226.502 310.964,221.596 C310.964,207.305 299.36,195.719 285.046,195.719 C270.733,195.719 259.129,207.305 259.129,221.596 C259.129,226.502 260.497,231.09 262.873,235 L307.22,235" id="Fill-194" fill="#F9F6EC" sketch:type="MSShapeGroup"></path>
            <path d="M323.629,235 C328.555,233.565 332.874,230.711 336.112,226.91 L336.112,193.408 C331.358,187.827 324.278,184.282 316.365,184.282 C302.052,184.282 290.448,195.868 290.448,210.159 C290.448,221.182499 297.355143,230.591614 307.082545,234.318335 C307.745688,234.572395 308.421938,234.800046 309.11,235 L323.629,235 Z" id="Fill-195" fill="#F9F6EC" sketch:type="MSShapeGroup"></path>
            <path d="M336.112,158.418 C322.04,158.696 310.716,170.164 310.716,184.282 C310.716,198.399 322.04,209.868 336.112,210.145 L336.112,158.418" id="Fill-196" fill="#F9F6EC" sketch:type="MSShapeGroup"></path>
            <path d="M336.112,235 L336.112,207.602 C322.04,207.88 310.716,219.35 310.716,233.466 C310.716,233.982 310.735,234.493 310.765,235 L336.112,235" id="Fill-197" fill="#F9F6EC" sketch:type="MSShapeGroup"></path>
            <path d="M124.493,234.965 C124.502,234.82 124.511,234.675 124.518,234.53 C124.586,234.56 124.656,234.59 124.725,234.62 C124.647,234.735 124.57,234.849 124.493,234.965 M88.996,213.595 C88.744,211.539 88.225,209.565 87.473,207.711 C88.845,209.235 90.259,210.721 91.713,212.165 C90.773,212.583 89.865,213.062 88.996,213.595 M48.525,200.8 C47.536,199.384 46.437,198.051 45.241,196.812 L53.244,196.812 C51.498,197.929 49.912,199.272 48.525,200.8 M79.24,197.372 C78.966,197.18 78.687,196.993 78.405,196.812 L78.849,196.812 C78.979,196.999 79.109,197.186 79.24,197.372" id="Fill-198" fill="#9FCECA" sketch:type="MSShapeGroup"></path>
            <path d="M124.725,234.62 C124.656,234.59 124.586,234.56 124.518,234.53 C124.536,234.178 124.546,233.824 124.546,233.466 C124.546,220.594 114.095,210.159 101.202,210.159 C97.823,210.159 94.612,210.875 91.713,212.165 C90.259,210.721 88.845,209.235 87.473,207.711 C85.775,203.521 82.893,199.937 79.24,197.372 C79.109,197.186 78.979,196.999 78.849,196.812 L113.562,196.812 C115.056,200.081 115.889,203.715 115.889,207.543 C115.889,208.239 115.854,208.926 115.799,209.608 C118.891,208.309 122.286,207.589 125.851,207.589 C133.082,207.589 139.623,210.547 144.325,215.317 C136.583,220.393 129.912,226.965 124.725,234.62" id="Fill-199" fill="#9CC4C1" sketch:type="MSShapeGroup"></path>
            <path d="M35.13,189.702 C34.16,189.266 33.165,188.876 32.147,188.535 C35.735,182.583 41.655,178.191 48.644,176.618 C44.743,179.996 40.257,184.274 35.13,189.702" id="Fill-200" fill="#A4BCBB" sketch:type="MSShapeGroup"></path>
            <path d="M51.968,196.812 C51.971,196.704 52.003,196.53 52.062,196.298 C52.029,196.469 51.997,196.641 51.968,196.812 M42.967,194.671 C40.621,192.664 37.984,190.983 35.13,189.702 C40.257,184.274 44.743,179.996 48.644,176.618 C50.485,176.204 52.4,175.985 54.367,175.985 C54.826,175.985 55.282,175.997 55.735,176.02 C49.96,182.978 45.125,190.939 42.967,194.671 M58.735,182.113 C59.845,180.389 61.028,178.822 62.231,177.626 L62.17,177.73 C61.134,178.938 59.94,180.424 58.735,182.113" id="Fill-201" fill="#D5E99A" sketch:type="MSShapeGroup"></path>
            <path d="M62.17,177.73 L62.231,177.626 L62.17,177.73" id="Fill-202" fill="#B2B5B8" sketch:type="MSShapeGroup"></path>
            <path d="M62.17,177.73 L62.231,177.626 C62.29,177.567 62.35,177.509 62.409,177.452 L62.41,177.451 C62.331,177.542 62.251,177.635 62.17,177.73" id="Fill-203" fill="#A8E1AB" sketch:type="MSShapeGroup"></path>
            <path d="M113.562,196.812 L78.405,196.812 C74.774,194.488 70.457,193.141 65.824,193.141 C61.192,193.141 56.874,194.488 53.244,196.812 L51.968,196.812 C51.997,196.641 52.029,196.469 52.062,196.298 C52.595,194.206 55.322,187.414 58.735,182.113 C59.94,180.424 61.134,178.938 62.17,177.73 C62.251,177.635 62.331,177.542 62.41,177.451 L62.624,177.326 C63.577,177.646 64.507,178.02 65.407,178.443 L64.201,185.071 L66.699,185.071 L66.699,186.084 C66.699,186.345 66.907,186.557 67.164,186.557 C67.422,186.557 67.63,186.345 67.63,186.084 L67.63,185.071 L70.223,185.071 L69.449,180.816 C71.607,182.361 73.518,184.229 75.11,186.349 C77.161,184.912 79.43,183.764 81.856,182.964 L80.414,190.889 L82.912,190.889 L82.912,191.903 C82.912,192.164 83.12,192.375 83.377,192.375 C83.635,192.375 83.843,192.164 83.843,191.903 L83.843,190.889 L86.436,190.889 L84.85,182.173 C86.505,181.841 88.218,181.666 89.971,181.666 C92.873,181.666 95.663,182.142 98.268,183.021 L97.617,186.599 L100.115,186.599 L100.115,187.612 C100.115,187.873 100.323,188.084 100.58,188.084 C100.838,188.084 101.046,187.873 101.046,187.612 L101.046,186.599 L103.639,186.599 L103.425,185.422 C107.845,188.108 111.397,192.077 113.562,196.812" id="Fill-204" fill="#A4D7A3" sketch:type="MSShapeGroup"></path>
            <path d="M62.409,177.452 C62.46,177.403 62.51,177.354 62.56,177.305 C62.581,177.312 62.603,177.319 62.624,177.326 L62.41,177.451 L62.409,177.452" id="Fill-205" fill="#D5E99A" sketch:type="MSShapeGroup"></path>
            <path d="M51.968,196.812 L45.241,196.812 C44.517,196.062 43.759,195.349 42.967,194.671 C45.125,190.939 49.96,182.978 55.735,176.02 C58.108,176.144 60.397,176.586 62.56,177.305 C62.51,177.354 62.46,177.403 62.409,177.452 C62.35,177.509 62.29,177.567 62.231,177.626 C61.028,178.822 59.845,180.389 58.735,182.113 C55.322,187.414 52.595,194.206 52.062,196.298 C52.003,196.53 51.971,196.704 51.968,196.812" id="Fill-206" fill="#A8E1AB" sketch:type="MSShapeGroup"></path>
            <path d="M100.58,188.084 C100.323,188.084 100.115,187.873 100.115,187.612 L100.115,186.599 L101.046,186.599 L101.046,187.612 C101.046,187.873 100.838,188.084 100.58,188.084" id="Fill-207" fill="#A9AAAC" sketch:type="MSShapeGroup"></path>
            <path d="M100.597,186.599 L97.617,186.599 L98.268,183.021 C99.062,183.289 99.84,183.594 100.597,183.934 L100.597,186.599" id="Fill-208" fill="#DBF4B5" sketch:type="MSShapeGroup"></path>
            <path d="M103.639,186.599 L100.597,186.599 L100.597,183.934 C101.573,184.373 102.517,184.87 103.425,185.422 L103.639,186.599" id="Fill-209" fill="#DBF4B5" sketch:type="MSShapeGroup"></path>
            <path d="M67.164,186.557 C66.907,186.557 66.699,186.345 66.699,186.084 L66.699,185.071 L67.63,185.071 L67.63,186.084 C67.63,186.345 67.422,186.557 67.164,186.557" id="Fill-210" fill="#A9AAAC" sketch:type="MSShapeGroup"></path>
            <path d="M67.181,185.071 L64.201,185.071 L65.407,178.443 C66.011,178.728 66.603,179.035 67.181,179.364 L67.181,185.071" id="Fill-211" fill="#DBF4B5" sketch:type="MSShapeGroup"></path>
            <path d="M70.223,185.071 L67.181,185.071 L67.181,179.364 C67.963,179.809 68.72,180.295 69.449,180.816 L70.223,185.071" id="Fill-212" fill="#DBF4B5" sketch:type="MSShapeGroup"></path>
            <path d="M83.377,192.375 C83.12,192.375 82.912,192.164 82.912,191.903 L82.912,190.889 L83.843,190.889 L83.843,191.903 C83.843,192.164 83.635,192.375 83.377,192.375" id="Fill-213" fill="#A9AAAC" sketch:type="MSShapeGroup"></path>
            <path d="M83.394,190.889 L80.414,190.889 L81.856,182.964 C82.362,182.797 82.874,182.645 83.394,182.509 L83.394,190.889" id="Fill-214" fill="#DBF4B5" sketch:type="MSShapeGroup"></path>
            <path d="M86.436,190.889 L83.394,190.889 L83.394,182.509 C83.874,182.384 84.36,182.271 84.85,182.173 L86.436,190.889" id="Fill-215" fill="#DBF4B5" sketch:type="MSShapeGroup"></path>
            <path d="M44.422,225.765 C35.044,221.871 28.45,212.635 28.45,201.862 C28.45,196.988 29.8,192.427 32.147,188.535 C33.165,188.876 34.16,189.266 35.13,189.702 C37.984,190.983 40.621,192.664 42.967,194.671 C43.759,195.349 44.517,196.062 45.241,196.812 C46.437,198.051 47.536,199.384 48.525,200.8 C44.769,204.936 42.48,210.426 42.48,216.449 C42.48,219.761 43.173,222.912 44.422,225.765" id="Fill-216" fill="#F9F6EC" sketch:type="MSShapeGroup"></path>
            <path d="M78.043,230.522 C74.571,228.722 71.558,226.159 69.227,223.057 C65.019,226.004 59.896,227.739 54.367,227.739 C50.844,227.739 47.484,227.036 44.422,225.765 C43.173,222.912 42.48,219.761 42.48,216.449 C42.48,210.426 44.769,204.936 48.525,200.8 C49.912,199.272 51.498,197.929 53.244,196.812 C56.874,194.488 61.192,193.141 65.824,193.141 C70.457,193.141 74.774,194.488 78.405,196.812 C78.687,196.993 78.966,197.18 79.24,197.372 C82.893,199.937 85.775,203.521 87.473,207.711 C88.225,209.565 88.744,211.539 88.996,213.595 C83.106,217.209 78.947,223.359 78.043,230.522" id="Fill-217" fill="#F9F6EC" sketch:type="MSShapeGroup"></path>
            <path d="M124.469,235 L99.982,235 C99.953,234.493 99.934,233.982 99.934,233.466 C99.934,232.77 99.969,232.082 100.023,231.401 C96.932,232.702 93.536,233.42 89.971,233.42 C85.67,233.42 81.613,232.374 78.043,230.522 C78.947,223.359 83.106,217.209 88.996,213.595 C89.865,213.062 90.773,212.583 91.713,212.165 C94.612,210.875 97.823,210.159 101.202,210.159 C114.095,210.159 124.546,220.594 124.546,233.466 C124.546,233.824 124.536,234.178 124.518,234.53 C124.511,234.675 124.502,234.82 124.493,234.965 C124.485,234.976 124.476,234.989 124.469,235" id="Fill-218" fill="#F9F6EC" sketch:type="MSShapeGroup"></path>
            <path d="M151.72,235 L124.469,235 C124.476,234.989 124.485,234.976 124.493,234.965 C124.57,234.849 124.647,234.735 124.725,234.62 C129.912,226.965 136.583,220.393 144.325,215.317 C148.929,219.988 151.769,226.396 151.769,233.466 C151.769,233.982 151.749,234.493 151.72,235" id="Fill-219" fill="#F9F6EC" sketch:type="MSShapeGroup"></path>
            <path d="M226.411,218.475 C225.644,218.132 224.855,217.829 224.046,217.569 C218.804,213.694 213,210.535 206.778,208.236 C208.96,203.686 212.435,199.872 216.727,197.268 L241.043,197.776 L241.044,197.776 L244.509,197.848 C245.485,198.498 246.415,199.212 247.293,199.984 C237.257,201.559 229.134,208.884 226.411,218.475" id="Fill-220" fill="#9CC4C1" sketch:type="MSShapeGroup"></path>
            <path d="M241.043,197.776 L216.727,197.268 C220.646,194.89 225.246,193.521 230.167,193.521 C230.477,193.521 230.786,193.526 231.093,193.537 L230.983,194.145 L241.043,197.776" id="Fill-221" fill="#A8E1AB" sketch:type="MSShapeGroup"></path>
            <path d="M244.509,197.848 L241.044,197.776 L241.043,197.776 L230.983,194.145 L231.093,193.537 C233.319,193.615 235.473,193.974 237.52,194.579 L237.52,194.632 C237.52,194.893 237.728,195.105 237.985,195.105 C238.163,195.105 238.318,195.004 238.396,194.855 C240.577,195.585 242.63,196.598 244.509,197.848" id="Fill-222" fill="#9DD0B6" sketch:type="MSShapeGroup"></path>
            <path d="M237.985,195.105 C237.728,195.105 237.52,194.893 237.52,194.632 L237.52,194.579 C237.815,194.666 238.106,194.758 238.396,194.855 C238.318,195.004 238.163,195.105 237.985,195.105" id="Fill-223" fill="#A9AAAC" sketch:type="MSShapeGroup"></path>
            <path d="M204.26,220.144 C204.253,219.896 204.249,219.647 204.249,219.398 C204.249,215.401 205.157,211.616 206.778,208.236 C213,210.535 218.804,213.694 224.046,217.569 C221.787,216.842 219.377,216.449 216.876,216.449 C212.228,216.449 207.898,217.805 204.26,220.144" id="Fill-224" fill="#F9F6EC" sketch:type="MSShapeGroup"></path>
            <path d="M265.915,204.14 C262.387,201.742 258.237,200.192 253.756,199.779 C254.177,199.213 254.593,198.642 255.004,198.067 L273.442,198.452 C270.593,199.879 268.044,201.814 265.915,204.14 M299.013,190.938 C298.461,190.667 297.92,190.402 297.391,190.145 C291.401,187.238 288.407,183.318 284,181.036 L281.175,171.686 C285.904,165.412 293.425,161.354 301.895,161.354 C307.818,161.354 313.277,163.338 317.642,166.677 C313.344,171.294 310.716,177.48 310.716,184.282 C310.716,184.488 310.718,184.692 310.723,184.897 C306.284,185.881 302.273,188.002 299.013,190.938" id="Fill-225" fill="#9FCECA" sketch:type="MSShapeGroup"></path>
            <path d="M248.209,199.857 C248.413,199.206 248.642,198.567 248.895,197.94 L250.84,197.98 L255.004,198.067 C254.593,198.642 254.177,199.213 253.756,199.779 C252.963,199.707 252.16,199.669 251.349,199.669 C250.286,199.669 249.238,199.733 248.209,199.857" id="Fill-226" fill="#9CC4C1" sketch:type="MSShapeGroup"></path>
            <path d="M284,181.036 C283.353,180.701 282.675,180.401 281.953,180.145 C280.858,179.757 279.222,179.397 277.295,179.069 C278.188,176.386 279.508,173.898 281.175,171.686 L284,181.036" id="Fill-227" fill="#A4BCBB" sketch:type="MSShapeGroup"></path>
            <path d="M273.442,198.452 L255.004,198.067 L250.84,197.98 L260.285,198.177 C257.983,195.641 255.776,192.984 253.75,190.206 C257.216,186.39 261.807,183.612 267.001,182.395 L265.498,190.662 L267.996,190.662 L267.996,191.675 C267.996,191.936 268.204,192.148 268.461,192.148 C268.719,192.148 268.927,191.936 268.927,191.675 L268.927,190.662 L271.52,190.662 L270.291,183.907 L275.093,186.312 L275.093,191.312 L283.539,195.762 C279.925,195.969 276.509,196.916 273.442,198.452 M295.271,195.122 C288.98,191.018 279.727,184.66 276.751,180.937 C276.91,180.304 277.091,179.682 277.295,179.069 C279.222,179.397 280.858,179.757 281.953,180.145 C282.675,180.401 283.353,180.701 284,181.036 C288.407,183.318 291.401,187.238 297.391,190.145 C297.92,190.402 298.461,190.667 299.013,190.938 C297.62,192.192 296.364,193.595 295.271,195.122" id="Fill-228" fill="#A8E1AB" sketch:type="MSShapeGroup"></path>
            <path d="M260.285,198.177 L250.84,197.98 L248.895,197.94 C250.05,195.072 251.704,192.458 253.75,190.206 C255.776,192.984 257.983,195.641 260.285,198.177" id="Fill-229" fill="#9DD0B6" sketch:type="MSShapeGroup"></path>
            <path d="M293.89,197.265 C291.13,196.265 288.152,195.719 285.046,195.719 C284.54,195.719 284.038,195.734 283.539,195.762 L275.093,191.312 L275.093,186.312 L270.291,183.907 L269.923,181.886 C270.913,181.771 271.921,181.712 272.941,181.712 C274.155,181.712 275.347,181.802 276.517,181.963 C276.588,181.619 276.666,181.276 276.751,180.937 C279.727,184.66 288.98,191.018 295.271,195.122 C294.776,195.812 294.316,196.526 293.89,197.265" id="Fill-230" fill="#A4D7A3" sketch:type="MSShapeGroup"></path>
            <path d="M268.461,192.148 C268.204,192.148 267.996,191.936 267.996,191.675 L267.996,190.662 L268.927,190.662 L268.927,191.675 C268.927,191.936 268.719,192.148 268.461,192.148" id="Fill-231" fill="#A9AAAC" sketch:type="MSShapeGroup"></path>
            <path d="M268.478,190.662 L265.498,190.662 L267.001,182.395 C267.488,182.281 267.98,182.181 268.478,182.095 L268.478,190.662" id="Fill-232" fill="#DBF4B5" sketch:type="MSShapeGroup"></path>
            <path d="M271.52,190.662 L268.478,190.662 L268.478,182.095 C268.955,182.012 269.437,181.942 269.923,181.886 L271.52,190.662" id="Fill-233" fill="#DBF4B5" sketch:type="MSShapeGroup"></path>
            <path d="M227.225,235 L209.493,235 C206.344,230.847 204.418,225.716 204.26,220.144 C207.898,217.805 212.228,216.449 216.876,216.449 C219.377,216.449 221.787,216.842 224.046,217.569 C224.855,217.829 225.644,218.132 226.411,218.475 C225.773,220.723 225.432,223.094 225.432,225.546 C225.432,228.884 226.071,232.071 227.225,235" id="Fill-234" fill="#F9F6EC" sketch:type="MSShapeGroup"></path>
            <path d="M250.814,235 L227.225,235 C226.071,232.071 225.432,228.884 225.432,225.546 C225.432,223.094 225.773,220.723 226.411,218.475 C229.134,208.884 237.257,201.559 247.293,199.984 C247.527,200.191 247.758,200.401 247.984,200.616 C248.055,200.361 248.131,200.108 248.209,199.857 C249.238,199.733 250.286,199.669 251.349,199.669 C252.16,199.669 252.963,199.707 253.756,199.779 C258.237,200.192 262.387,201.742 265.915,204.14 C261.7,208.742 259.129,214.869 259.129,221.596 C259.129,224.678 259.669,227.634 260.659,230.376 C258.638,229.286 256.778,227.936 255.124,226.372 C254.238,229.538 252.75,232.448 250.814,235" id="Fill-235" fill="#F9F6EC" sketch:type="MSShapeGroup"></path>
            <path d="M272.941,233.466 C268.496,233.466 264.314,232.347 260.659,230.376 C259.669,227.634 259.129,224.678 259.129,221.596 C259.129,214.869 261.7,208.742 265.915,204.14 C268.044,201.814 270.593,199.879 273.442,198.452 C276.509,196.916 279.925,195.969 283.539,195.762 C284.038,195.734 284.54,195.719 285.046,195.719 C288.152,195.719 291.13,196.265 293.89,197.265 C291.701,201.061 290.448,205.464 290.448,210.159 C290.448,214.802 291.673,219.158 293.818,222.924 C289.1,229.318 281.506,233.466 272.941,233.466" id="Fill-236" fill="#F9F6EC" sketch:type="MSShapeGroup"></path>
            <path d="M293.818,222.924 C291.673,219.158 290.448,214.802 290.448,210.159 C290.448,205.464 291.701,201.061 293.89,197.265 C294.316,196.526 294.776,195.812 295.271,195.122 C296.364,193.595 297.62,192.192 299.013,190.938 C302.273,188.002 306.284,185.881 310.723,184.897 C310.913,193.024 314.857,200.223 320.891,204.834 C316.158,209.924 309.399,213.108 301.895,213.108 C300.682,213.108 299.489,213.018 298.32,212.857 C297.552,216.564 295.99,219.982 293.818,222.924" id="Fill-237" fill="#F9F6EC" sketch:type="MSShapeGroup"></path>
            <path d="M320.891,204.834 C314.857,200.223 310.913,193.024 310.723,184.897 C310.718,184.692 310.716,184.488 310.716,184.282 C310.716,177.48 313.344,171.294 317.642,166.677 C323.825,171.406 327.812,178.854 327.812,187.231 C327.812,194.029 325.186,200.216 320.891,204.834" id="Fill-238" fill="#F9F6EC" sketch:type="MSShapeGroup"></path>
            <path d="M147.701,70.188 C147.701,75.38 143.491,79.589 138.3,79.589 C133.107,79.589 128.898,75.38 128.898,70.188 C128.898,64.995 133.107,60.787 138.3,60.787 C143.491,60.787 147.701,64.995 147.701,70.188" id="Fill-239" fill="#FFE7A1" sketch:type="MSShapeGroup"></path>
            <path d="M41.19,44.975 L49.127,41.691 L62.081,41.508 L69.653,37.038 L75.674,41.006 L78.411,37.038 L83.884,37.038 L92.916,28.828 L103.59,28.828 L118.916,24.174 L133.421,30.196 L137.526,36.764 L149.295,34.575 L154.769,44.975 L41.19,44.975" id="Fill-240" fill="#F9F6EC" sketch:type="MSShapeGroup"></path>
        </g>
    </g>
</svg>