<?xml version="1.0" encoding="UTF-8"?>
<svg width="44px" height="39px" viewBox="0 0 44 39" version="1.1" xmlns="http://www.w3.org/2000/svg" xmlns:xlink="http://www.w3.org/1999/xlink" xmlns:sketch="http://www.bohemiancoding.com/sketch/ns">
    <title>Slice 1</title>
    <description>Created with Sketch (http://www.bohemiancoding.com/sketch)</description>
    <defs></defs>
    <g id="Page-1" stroke="none" stroke-width="1" fill="none" fill-rule="evenodd" sketch:type="MSPage">
        <g id="MY-APFT-ICON-3" sketch:type="MSLayerGroup" fill="#F3D068">
            <path d="M38.654,6.423 L38.654,14.871 L36.699,16.827 L36.699,22.928 L34.242,25.385 C34.442,25.482 34.639,25.586 34.833,25.696 C36.201,26.477 37.366,27.575 38.225,28.891 C40.582,30.177 41.76,32.091 43.204,34.442 L30.735,34.442 L26.661,30.368 L22.904,30.368 L24.643,32.106 L27.394,32.106 L33.305,38.08 L22.169,38.08 L18.598,34.509 L10.504,34.509 L0.395,24.4 L8.489,24.4 L6.988,22.899 L6.988,16.797 L5.061,14.871 L5.061,0.321 L21.858,17.117 L38.654,0.321 L38.654,6.423 L38.654,6.423 Z M36.857,4.661 L36.857,8.025 L24.909,19.972 L23.227,18.29 L36.857,4.661 L36.857,4.661 Z M32.46,29.143 C33.041,29.428 33.568,29.81 34.018,30.266 L29.101,30.266 L31.479,32.644 L39.779,32.644 C39.073,31.62 38.1,30.794 36.961,30.266 C36.241,29.014 35.196,27.973 33.942,27.257 C32.772,26.59 31.42,26.205 29.978,26.197 L28.396,26.197 L6.858,4.66 L6.858,8.024 L27.412,28.577 L30.405,28.577 C31.137,28.637 31.831,28.834 32.46,29.143 Z M6.858,10.762 L24.667,28.57 L21.303,28.57 L6.858,14.126 L6.858,10.762 L6.858,10.762 Z M19.342,32.712 L11.249,32.712 L8.87,30.333 L16.963,30.333 L15.207,28.577 L7.114,28.577 L4.735,26.198 L12.828,26.198 L8.785,22.155 L8.785,18.79 L23.898,33.904 L26.644,33.904 L28.998,36.283 L22.913,36.283 L19.342,32.712 L19.342,32.712 Z M36.857,10.762 L36.857,14.127 L29.642,21.341 L31.011,22.71 L34.901,18.82 L34.901,22.184 L32.442,24.643 L29.579,24.643 L26.278,21.341 L36.857,10.762 L36.857,10.762 Z" id="Fill-2" sketch:type="MSShapeGroup"></path>
            <path d="M21.815,0.321 L23.268,4.821 L27.997,4.812 L24.166,7.584 L25.635,12.079 L21.815,9.292 L17.995,12.079 L19.465,7.584 L15.634,4.812 L20.363,4.821 L21.815,0.321 L21.815,0.321 Z M21.815,4.914 L21.389,6.234 L20.002,6.231 L21.126,7.044 L20.695,8.362 L21.815,7.545 L22.936,8.362 L22.504,7.044 L23.628,6.231 L22.241,6.234 L21.815,4.914 L21.815,4.914 Z" id="Fill-3" sketch:type="MSShapeGroup"></path>
        </g>
    </g>
</svg>