<?xml version="1.0" encoding="UTF-8"?>
<svg width="308px" height="228px" viewBox="0 0 308 228" version="1.1" xmlns="http://www.w3.org/2000/svg" xmlns:xlink="http://www.w3.org/1999/xlink" xmlns:sketch="http://www.bohemiancoding.com/sketch/ns">
    <title>Slice 1</title>
    <description>Created with Sketch (http://www.bohemiancoding.com/sketch)</description>
    <defs></defs>
    <g id="Page-1" stroke="none" stroke-width="1" fill="none" fill-rule="evenodd" sketch:type="MSPage">
        <g id="MY-APFT-1" sketch:type="MSLayerGroup" transform="translate(0.000000, 1.000000)">
            <path d="M227.699,27.211 L227.699,65.181 L218.909,73.97 L218.909,101.394 L207.869,112.435 C215.147,115.966 221.342,121.418 225.77,128.195 C236.364,133.975 241.659,142.579 248.147,153.143 L192.105,153.143 L173.793,134.832 L156.909,134.832 L164.723,142.646 L177.091,142.646 L203.655,169.496 L153.603,169.496 L137.553,153.446 L101.175,153.446 L55.74,108.011 L92.118,108.011 L85.371,101.264 L85.371,73.838 L76.711,65.178 L76.711,-0.218 L152.207,75.277 L227.699,-0.216 L227.699,27.211" id="Fill-1" fill="#29584A" sketch:type="MSShapeGroup"></path>
            <path d="M219.62,19.288 L219.62,34.408 L165.92,88.108 L158.361,80.548 L219.62,19.288 L219.62,19.288 Z M190.621,126.782 C193.913,127.05 197.031,127.937 199.859,129.326 C202.472,130.61 204.837,132.323 206.86,134.372 L184.76,134.372 L195.451,145.064 L232.756,145.064 C229.58,140.461 225.207,136.748 220.086,134.372 C216.85,128.747 212.156,124.068 206.519,120.851 C201.261,117.851 195.182,116.122 188.702,116.086 L181.593,116.088 L84.789,19.285 L84.789,34.405 L177.168,126.782 L190.621,126.782 L190.621,126.782 Z M84.789,46.711 L164.834,126.753 L149.712,126.753 L84.789,61.832 L84.789,46.711 L84.789,46.711 Z M140.899,145.367 L104.522,145.367 L93.829,134.675 L130.207,134.675 L122.314,126.782 L85.936,126.782 L75.244,116.09 L111.621,116.09 L93.449,97.918 L93.449,82.797 L161.377,150.725 L173.72,150.725 L184.298,161.417 L156.949,161.417 L140.899,145.367 L140.899,145.367 Z M219.62,46.714 L219.62,61.835 L187.192,94.26 L193.345,100.413 L210.83,82.928 L210.83,98.048 L199.779,109.1 L186.911,109.1 L172.071,94.26 L219.62,46.714 L219.62,46.714 Z" id="Fill-2" fill="#F3D068" sketch:type="MSShapeGroup"></path>
            <path d="M152.014,-0.218 L158.543,20.009 L179.797,19.967 L162.578,32.428 L169.185,52.629 L152.014,40.103 L134.843,52.629 L141.45,32.428 L124.231,19.967 L145.485,20.009 L152.014,-0.218" id="Fill-3" fill="#29584A" sketch:type="MSShapeGroup"></path>
            <path d="M64.008,191.629 L77.863,191.629 L89.125,205.491 L99.92,191.629 L113.645,191.629 L94.726,213.979 L94.726,226.218 L83.835,226.218 L83.835,213.979 L64.008,191.629" id="Fill-4" fill="#29584A" sketch:type="MSShapeGroup"></path>
            <path d="M0.254,191.629 L19.346,191.629 L29.631,214.065 L39.916,191.629 L58.906,191.629 L58.906,226.218 L48.525,226.218 L48.776,200.288 L47.056,200.288 L34.013,226.218 L25.276,226.218 L12.233,200.288 L10.384,200.288 L10.634,226.218 L0.254,226.218 L0.254,191.629" id="Fill-5" fill="#29584A" sketch:type="MSShapeGroup"></path>
            <path d="M151.632,212.786 L144.969,199.666 L142.868,199.666 L136.204,212.786 L151.632,212.786 L151.632,212.786 Z M158.287,226.218 L155.322,220.357 L132.462,220.357 L129.497,226.218 L117.466,226.218 L135.807,191.629 L152.159,191.629 L170.24,226.218 L158.287,226.218 L158.287,226.218 Z" id="Fill-6" fill="#29584A" sketch:type="MSShapeGroup"></path>
            <path d="M186.074,209.104 L199.237,209.104 C201.398,209.087 202.694,209.061 203.118,209.026 C204.681,208.923 205.676,208.43 206.1,207.54 C206.367,206.969 206.506,205.976 206.506,204.558 C206.506,203.227 206.351,202.284 206.047,201.732 C205.598,200.92 204.639,200.47 203.187,200.392 C202.72,200.357 201.398,200.323 199.237,200.288 L186.074,200.288 L186.074,209.104 L186.074,209.104 Z M175.546,226.218 L175.546,191.629 L199.219,191.629 C203.905,191.629 206.929,191.724 208.278,191.905 C211.986,192.397 214.449,193.72 215.667,195.889 C216.576,197.506 217.033,200.41 217.033,204.584 C217.033,208.862 216.531,211.861 215.538,213.581 C214.596,215.207 213.032,216.33 210.863,216.952 C209.254,217.41 207.102,217.67 204.405,217.738 C203.187,217.756 201.492,217.764 199.315,217.764 L186.074,217.764 L186.074,226.218 L175.546,226.218 L175.546,226.218 Z" id="Fill-7" fill="#29584A" sketch:type="MSShapeGroup"></path>
            <path d="M222.903,191.629 L259.411,191.629 L259.411,199.77 L233.429,199.77 L233.429,206.303 L258.166,206.303 L258.166,214.238 L233.429,214.238 L233.429,226.218 L222.903,226.218 L222.903,191.629" id="Fill-8" fill="#29584A" sketch:type="MSShapeGroup"></path>
            <path d="M265.896,191.629 L307.746,191.629 L307.746,200.444 L292.344,200.444 L292.344,226.218 L281.299,226.218 L281.299,200.444 L265.896,200.444 L265.896,191.629" id="Fill-9" fill="#29584A" sketch:type="MSShapeGroup"></path>
        </g>
    </g>
</svg>